<mxfile host="app.diagrams.net" modified="2022-04-14T09:27:43.799Z" agent="5.0 (Windows NT 10.0; Win64; x64) AppleWebKit/537.36 (KHTML, like Gecko) Chrome/100.0.4896.75 Safari/537.36 Edg/100.0.1185.36" etag="PRTcBEyNjLu4JhEus356" version="17.4.4" type="github">
  <diagram id="SJ9gOCFFG2VKDic4I2q0" name="Page-1">
    <mxGraphModel dx="959" dy="624" grid="1" gridSize="10" guides="1" tooltips="1" connect="1" arrows="1" fold="1" page="1" pageScale="1" pageWidth="827" pageHeight="1169" math="0" shadow="0">
      <root>
        <mxCell id="0" />
        <mxCell id="1" parent="0" />
        <mxCell id="HiGfMI2_BvW3N3jhEARH-15" value="" style="group;dashed=1;strokeColor=#FFFFFF;fillColor=none;perimeterSpacing=0;strokeWidth=0;" vertex="1" connectable="0" parent="1">
          <mxGeometry x="10" y="40" width="150" height="580" as="geometry" />
        </mxCell>
        <mxCell id="YgaLt_6aCvRy0R8xdD-K-1" value="&lt;font style=&quot;font-size: 23px&quot; color=&quot;#ffffff&quot;&gt;用户&lt;/font&gt;" style="rounded=0;whiteSpace=wrap;html=1;fillColor=#7EA6E0;strokeColor=#10739e;" parent="HiGfMI2_BvW3N3jhEARH-15" vertex="1">
          <mxGeometry width="100" height="60" as="geometry" />
        </mxCell>
        <mxCell id="HiGfMI2_BvW3N3jhEARH-12" value="" style="endArrow=none;dashed=1;html=1;strokeWidth=3;rounded=0;strokeColor=#6666FF;" edge="1" parent="HiGfMI2_BvW3N3jhEARH-15">
          <mxGeometry width="50" height="50" relative="1" as="geometry">
            <mxPoint x="49.50833333333333" y="580" as="sourcePoint" />
            <mxPoint x="50" y="60" as="targetPoint" />
          </mxGeometry>
        </mxCell>
        <mxCell id="HiGfMI2_BvW3N3jhEARH-69" value="" style="endArrow=classic;html=1;rounded=0;fontSize=23;fontColor=#FFFFFF;strokeColor=#00CC00;strokeWidth=3;" edge="1" parent="HiGfMI2_BvW3N3jhEARH-15">
          <mxGeometry width="50" height="50" relative="1" as="geometry">
            <mxPoint x="50" y="110" as="sourcePoint" />
            <mxPoint x="180" y="109.99975609756099" as="targetPoint" />
          </mxGeometry>
        </mxCell>
        <mxCell id="HiGfMI2_BvW3N3jhEARH-85" value="&lt;font color=&quot;#00994d&quot; style=&quot;font-size: 13px&quot;&gt;用户登陆&lt;/font&gt;" style="text;html=1;strokeColor=none;fillColor=none;align=center;verticalAlign=middle;whiteSpace=wrap;rounded=0;dashed=1;fontSize=23;fontColor=#000000;" vertex="1" parent="HiGfMI2_BvW3N3jhEARH-15">
          <mxGeometry x="70" y="110" width="60" height="30" as="geometry" />
        </mxCell>
        <mxCell id="HiGfMI2_BvW3N3jhEARH-90" value="返回Token" style="text;html=1;strokeColor=none;fillColor=none;align=center;verticalAlign=middle;whiteSpace=wrap;rounded=0;dashed=1;fontSize=13;fontColor=#00994D;" vertex="1" parent="HiGfMI2_BvW3N3jhEARH-15">
          <mxGeometry x="80" y="275" width="70" height="30" as="geometry" />
        </mxCell>
        <mxCell id="HiGfMI2_BvW3N3jhEARH-92" value="创建密文，携带token" style="text;html=1;strokeColor=none;fillColor=none;align=center;verticalAlign=middle;whiteSpace=wrap;rounded=0;dashed=1;fontSize=13;fontColor=#00994D;" vertex="1" parent="HiGfMI2_BvW3N3jhEARH-15">
          <mxGeometry x="70" y="320" width="70" height="30" as="geometry" />
        </mxCell>
        <mxCell id="HiGfMI2_BvW3N3jhEARH-109" value="返回结果" style="text;html=1;strokeColor=none;fillColor=none;align=center;verticalAlign=middle;whiteSpace=wrap;rounded=0;dashed=1;fontSize=13;fontColor=#00994D;" vertex="1" parent="HiGfMI2_BvW3N3jhEARH-15">
          <mxGeometry x="85" y="545" width="60" height="30" as="geometry" />
        </mxCell>
        <mxCell id="HiGfMI2_BvW3N3jhEARH-47" value="" style="group" vertex="1" connectable="0" parent="1">
          <mxGeometry x="260" y="40" width="170" height="580" as="geometry" />
        </mxCell>
        <mxCell id="HiGfMI2_BvW3N3jhEARH-48" value="&lt;font color=&quot;#ffffff&quot;&gt;&lt;span style=&quot;font-size: 23px&quot;&gt;API网关&lt;/span&gt;&lt;/font&gt;" style="rounded=0;whiteSpace=wrap;html=1;fillColor=#7EA6E0;strokeColor=#10739e;" vertex="1" parent="HiGfMI2_BvW3N3jhEARH-47">
          <mxGeometry width="100" height="60" as="geometry" />
        </mxCell>
        <mxCell id="HiGfMI2_BvW3N3jhEARH-64" value="" style="endArrow=none;dashed=1;html=1;strokeWidth=3;rounded=0;strokeColor=#6666FF;entryX=0.5;entryY=1;entryDx=0;entryDy=0;" edge="1" parent="HiGfMI2_BvW3N3jhEARH-47" target="HiGfMI2_BvW3N3jhEARH-48">
          <mxGeometry width="50" height="50" relative="1" as="geometry">
            <mxPoint x="49.16833333333341" y="580" as="sourcePoint" />
            <mxPoint x="49.16833333333341" y="84.8780487804878" as="targetPoint" />
          </mxGeometry>
        </mxCell>
        <mxCell id="HiGfMI2_BvW3N3jhEARH-86" value="&lt;font color=&quot;#00994d&quot;&gt;&lt;span style=&quot;font-size: 13px&quot;&gt;登录认证&lt;/span&gt;&lt;/font&gt;" style="text;html=1;strokeColor=none;fillColor=none;align=center;verticalAlign=middle;whiteSpace=wrap;rounded=0;dashed=1;fontSize=23;fontColor=#000000;" vertex="1" parent="HiGfMI2_BvW3N3jhEARH-47">
          <mxGeometry x="20" y="150" width="60" height="30" as="geometry" />
        </mxCell>
        <mxCell id="HiGfMI2_BvW3N3jhEARH-89" value="返回Token" style="text;html=1;strokeColor=none;fillColor=none;align=center;verticalAlign=middle;whiteSpace=wrap;rounded=0;dashed=1;fontSize=13;fontColor=#00994D;" vertex="1" parent="HiGfMI2_BvW3N3jhEARH-47">
          <mxGeometry x="20" y="240" width="70" height="30" as="geometry" />
        </mxCell>
        <mxCell id="HiGfMI2_BvW3N3jhEARH-94" value="创建密文请求" style="text;html=1;strokeColor=none;fillColor=none;align=center;verticalAlign=middle;whiteSpace=wrap;rounded=0;dashed=1;fontSize=13;fontColor=#00994D;" vertex="1" parent="HiGfMI2_BvW3N3jhEARH-47">
          <mxGeometry x="-50" y="340" width="80" height="30" as="geometry" />
        </mxCell>
        <mxCell id="HiGfMI2_BvW3N3jhEARH-108" value="返回结果" style="text;html=1;strokeColor=none;fillColor=none;align=center;verticalAlign=middle;whiteSpace=wrap;rounded=0;dashed=1;fontSize=13;fontColor=#00994D;" vertex="1" parent="HiGfMI2_BvW3N3jhEARH-47">
          <mxGeometry x="20" y="525" width="60" height="30" as="geometry" />
        </mxCell>
        <mxCell id="HiGfMI2_BvW3N3jhEARH-113" value="" style="endArrow=classic;html=1;rounded=0;fontSize=23;fontColor=#FFFFFF;strokeColor=#00CC00;strokeWidth=3;" edge="1" parent="HiGfMI2_BvW3N3jhEARH-47">
          <mxGeometry width="50" height="50" relative="1" as="geometry">
            <mxPoint x="50" y="359.9978048780489" as="sourcePoint" />
            <mxPoint x="50" y="400" as="targetPoint" />
            <Array as="points">
              <mxPoint x="70" y="360" />
              <mxPoint x="70" y="400" />
            </Array>
          </mxGeometry>
        </mxCell>
        <mxCell id="HiGfMI2_BvW3N3jhEARH-115" value="校&lt;br&gt;验&lt;br&gt;Token" style="text;html=1;strokeColor=none;fillColor=none;align=center;verticalAlign=middle;whiteSpace=wrap;rounded=0;dashed=1;fontSize=11;fontColor=#00994D;rotation=0;" vertex="1" parent="HiGfMI2_BvW3N3jhEARH-47">
          <mxGeometry x="65" y="365" width="60" height="20" as="geometry" />
        </mxCell>
        <mxCell id="HiGfMI2_BvW3N3jhEARH-117" value="" style="endArrow=classic;html=1;rounded=0;fontSize=23;fontColor=#FFFFFF;strokeColor=#00CC00;strokeWidth=3;" edge="1" parent="HiGfMI2_BvW3N3jhEARH-47">
          <mxGeometry width="50" height="50" relative="1" as="geometry">
            <mxPoint x="50" y="419.9997560975611" as="sourcePoint" />
            <mxPoint x="340" y="420" as="targetPoint" />
          </mxGeometry>
        </mxCell>
        <mxCell id="HiGfMI2_BvW3N3jhEARH-119" value="传递创建密文请求" style="text;html=1;strokeColor=none;fillColor=none;align=center;verticalAlign=middle;whiteSpace=wrap;rounded=0;dashed=1;fontSize=11;fontColor=#00994D;" vertex="1" parent="HiGfMI2_BvW3N3jhEARH-47">
          <mxGeometry x="110" y="420" width="60" height="30" as="geometry" />
        </mxCell>
        <mxCell id="HiGfMI2_BvW3N3jhEARH-50" value="" style="group" vertex="1" connectable="0" parent="1">
          <mxGeometry x="420" y="40" width="140" height="580" as="geometry" />
        </mxCell>
        <mxCell id="HiGfMI2_BvW3N3jhEARH-51" value="&lt;font style=&quot;font-size: 23px&quot; color=&quot;#ffffff&quot;&gt;UAA&lt;/font&gt;" style="rounded=0;whiteSpace=wrap;html=1;fillColor=#7EA6E0;strokeColor=#10739e;" vertex="1" parent="HiGfMI2_BvW3N3jhEARH-50">
          <mxGeometry width="100" height="60" as="geometry" />
        </mxCell>
        <mxCell id="HiGfMI2_BvW3N3jhEARH-65" value="" style="endArrow=none;dashed=1;html=1;strokeWidth=3;rounded=0;strokeColor=#6666FF;" edge="1" parent="HiGfMI2_BvW3N3jhEARH-50">
          <mxGeometry width="50" height="50" relative="1" as="geometry">
            <mxPoint x="49.99833333333345" y="580" as="sourcePoint" />
            <mxPoint x="50" y="60" as="targetPoint" />
          </mxGeometry>
        </mxCell>
        <mxCell id="HiGfMI2_BvW3N3jhEARH-71" value="" style="endArrow=classic;html=1;rounded=0;fontSize=23;fontColor=#FFFFFF;strokeColor=#00CC00;strokeWidth=3;" edge="1" parent="HiGfMI2_BvW3N3jhEARH-50">
          <mxGeometry width="50" height="50" relative="1" as="geometry">
            <mxPoint x="50" y="159.99780487804878" as="sourcePoint" />
            <mxPoint x="50" y="230.7295121951219" as="targetPoint" />
            <Array as="points">
              <mxPoint x="80" y="159.99780487804878" />
              <mxPoint x="80" y="230.7295121951219" />
            </Array>
          </mxGeometry>
        </mxCell>
        <mxCell id="HiGfMI2_BvW3N3jhEARH-87" value="身&lt;br&gt;份&lt;br&gt;认&lt;br&gt;证" style="text;html=1;strokeColor=none;fillColor=none;align=center;verticalAlign=middle;whiteSpace=wrap;rounded=0;dashed=1;fontSize=13;fontColor=#00994D;rotation=0;" vertex="1" parent="HiGfMI2_BvW3N3jhEARH-50">
          <mxGeometry x="70" y="180" width="60" height="30" as="geometry" />
        </mxCell>
        <mxCell id="HiGfMI2_BvW3N3jhEARH-78" value="" style="endArrow=classic;html=1;rounded=0;fontSize=23;fontColor=#FFFFFF;strokeColor=#00CC00;strokeWidth=3;" edge="1" parent="HiGfMI2_BvW3N3jhEARH-50">
          <mxGeometry width="50" height="50" relative="1" as="geometry">
            <mxPoint x="-230" y="339.9997560975611" as="sourcePoint" />
            <mxPoint x="-110" y="340" as="targetPoint" />
          </mxGeometry>
        </mxCell>
        <mxCell id="HiGfMI2_BvW3N3jhEARH-53" value="" style="group" vertex="1" connectable="0" parent="1">
          <mxGeometry x="560" y="40" width="150" height="580" as="geometry" />
        </mxCell>
        <mxCell id="HiGfMI2_BvW3N3jhEARH-54" value="&lt;font color=&quot;#ffffff&quot;&gt;&lt;span style=&quot;font-size: 18px&quot;&gt;Hollicube&lt;br&gt;API Server&lt;br&gt;&lt;/span&gt;&lt;/font&gt;" style="rounded=0;whiteSpace=wrap;html=1;fillColor=#7EA6E0;strokeColor=#10739e;" vertex="1" parent="HiGfMI2_BvW3N3jhEARH-53">
          <mxGeometry width="100" height="60" as="geometry" />
        </mxCell>
        <mxCell id="HiGfMI2_BvW3N3jhEARH-66" value="" style="endArrow=none;dashed=1;html=1;strokeWidth=3;rounded=0;strokeColor=#6666FF;" edge="1" parent="HiGfMI2_BvW3N3jhEARH-53">
          <mxGeometry width="50" height="50" relative="1" as="geometry">
            <mxPoint x="49.16833333333341" y="580" as="sourcePoint" />
            <mxPoint x="49" y="60" as="targetPoint" />
          </mxGeometry>
        </mxCell>
        <mxCell id="HiGfMI2_BvW3N3jhEARH-80" value="" style="endArrow=classic;html=1;rounded=0;fontSize=23;fontColor=#FFFFFF;strokeColor=#00CC00;strokeWidth=3;" edge="1" parent="HiGfMI2_BvW3N3jhEARH-53">
          <mxGeometry width="50" height="50" relative="1" as="geometry">
            <mxPoint x="50" y="449.9997560975611" as="sourcePoint" />
            <mxPoint x="180" y="449.99995426829287" as="targetPoint" />
          </mxGeometry>
        </mxCell>
        <mxCell id="HiGfMI2_BvW3N3jhEARH-104" value="创建Secret资源对象" style="text;html=1;strokeColor=none;fillColor=none;align=center;verticalAlign=middle;whiteSpace=wrap;rounded=0;dashed=1;fontSize=13;fontColor=#00994D;" vertex="1" parent="HiGfMI2_BvW3N3jhEARH-53">
          <mxGeometry x="80" y="460" width="70" height="30" as="geometry" />
        </mxCell>
        <mxCell id="HiGfMI2_BvW3N3jhEARH-81" value="" style="endArrow=classic;html=1;rounded=0;fontSize=23;fontColor=#FFFFFF;strokeColor=#00CC00;strokeWidth=3;dashed=1;" edge="1" parent="HiGfMI2_BvW3N3jhEARH-53">
          <mxGeometry width="50" height="50" relative="1" as="geometry">
            <mxPoint x="180" y="500" as="sourcePoint" />
            <mxPoint x="50" y="500" as="targetPoint" />
          </mxGeometry>
        </mxCell>
        <mxCell id="HiGfMI2_BvW3N3jhEARH-107" value="返回结果" style="text;html=1;strokeColor=none;fillColor=none;align=center;verticalAlign=middle;whiteSpace=wrap;rounded=0;dashed=1;fontSize=13;fontColor=#00994D;" vertex="1" parent="HiGfMI2_BvW3N3jhEARH-53">
          <mxGeometry x="85" y="500" width="60" height="30" as="geometry" />
        </mxCell>
        <mxCell id="HiGfMI2_BvW3N3jhEARH-56" value="" style="group" vertex="1" connectable="0" parent="1">
          <mxGeometry x="700" y="40" width="110" height="580" as="geometry" />
        </mxCell>
        <mxCell id="HiGfMI2_BvW3N3jhEARH-57" value="&lt;font style=&quot;font-size: 19px&quot; color=&quot;#ffffff&quot;&gt;kubernets&lt;br&gt;API Server&lt;br&gt;&lt;/font&gt;" style="rounded=0;whiteSpace=wrap;html=1;fillColor=#7EA6E0;strokeColor=#10739e;" vertex="1" parent="HiGfMI2_BvW3N3jhEARH-56">
          <mxGeometry width="100" height="60" as="geometry" />
        </mxCell>
        <mxCell id="HiGfMI2_BvW3N3jhEARH-67" value="" style="endArrow=none;dashed=1;html=1;strokeWidth=3;rounded=0;strokeColor=#6666FF;" edge="1" parent="HiGfMI2_BvW3N3jhEARH-56">
          <mxGeometry width="50" height="50" relative="1" as="geometry">
            <mxPoint x="49.16833333333341" y="594.1463414634146" as="sourcePoint" />
            <mxPoint x="49" y="70" as="targetPoint" />
          </mxGeometry>
        </mxCell>
        <mxCell id="HiGfMI2_BvW3N3jhEARH-59" value="" style="group" vertex="1" connectable="0" parent="1">
          <mxGeometry x="140" y="40" width="100" height="410" as="geometry" />
        </mxCell>
        <mxCell id="HiGfMI2_BvW3N3jhEARH-60" value="&lt;font color=&quot;#ffffff&quot;&gt;&lt;span style=&quot;font-size: 23px&quot;&gt;控制台&lt;br&gt;前端&lt;br&gt;&lt;/span&gt;&lt;/font&gt;" style="rounded=0;whiteSpace=wrap;html=1;fillColor=#7EA6E0;strokeColor=#10739e;" vertex="1" parent="HiGfMI2_BvW3N3jhEARH-59">
          <mxGeometry width="100" height="60" as="geometry" />
        </mxCell>
        <mxCell id="HiGfMI2_BvW3N3jhEARH-74" value="" style="endArrow=classic;html=1;rounded=0;fontSize=23;fontColor=#FFFFFF;strokeColor=#00CC00;strokeWidth=3;dashed=1;" edge="1" parent="HiGfMI2_BvW3N3jhEARH-59">
          <mxGeometry width="50" height="50" relative="1" as="geometry">
            <mxPoint x="50" y="270" as="sourcePoint" />
            <mxPoint x="-80" y="270" as="targetPoint" />
          </mxGeometry>
        </mxCell>
        <mxCell id="HiGfMI2_BvW3N3jhEARH-77" value="" style="endArrow=classic;html=1;rounded=0;fontSize=23;fontColor=#FFFFFF;strokeColor=#00CC00;strokeWidth=3;" edge="1" parent="HiGfMI2_BvW3N3jhEARH-59">
          <mxGeometry width="50" height="50" relative="1" as="geometry">
            <mxPoint x="-80" y="319.9997560975611" as="sourcePoint" />
            <mxPoint x="50" y="320" as="targetPoint" />
          </mxGeometry>
        </mxCell>
        <mxCell id="HiGfMI2_BvW3N3jhEARH-70" value="" style="endArrow=classic;html=1;rounded=0;fontSize=23;fontColor=#FFFFFF;strokeColor=#00CC00;strokeWidth=3;" edge="1" parent="1">
          <mxGeometry width="50" height="50" relative="1" as="geometry">
            <mxPoint x="190" y="190" as="sourcePoint" />
            <mxPoint x="470" y="190" as="targetPoint" />
          </mxGeometry>
        </mxCell>
        <mxCell id="HiGfMI2_BvW3N3jhEARH-73" value="" style="endArrow=classic;html=1;rounded=0;fontSize=23;fontColor=#FFFFFF;strokeColor=#00CC00;strokeWidth=3;dashed=1;" edge="1" parent="1">
          <mxGeometry width="50" height="50" relative="1" as="geometry">
            <mxPoint x="470" y="280" as="sourcePoint" />
            <mxPoint x="190" y="280" as="targetPoint" />
          </mxGeometry>
        </mxCell>
        <mxCell id="HiGfMI2_BvW3N3jhEARH-63" value="" style="endArrow=none;dashed=1;html=1;strokeWidth=3;rounded=0;strokeColor=#6666FF;" edge="1" parent="1">
          <mxGeometry width="50" height="50" relative="1" as="geometry">
            <mxPoint x="189.32833333333343" y="620" as="sourcePoint" />
            <mxPoint x="189" y="100" as="targetPoint" />
          </mxGeometry>
        </mxCell>
        <mxCell id="HiGfMI2_BvW3N3jhEARH-82" value="" style="endArrow=classic;html=1;rounded=0;fontSize=23;fontColor=#FFFFFF;strokeColor=#00CC00;strokeWidth=3;dashed=1;" edge="1" parent="1">
          <mxGeometry width="50" height="50" relative="1" as="geometry">
            <mxPoint x="610" y="560" as="sourcePoint" />
            <mxPoint x="190" y="560" as="targetPoint" />
          </mxGeometry>
        </mxCell>
        <mxCell id="HiGfMI2_BvW3N3jhEARH-83" value="" style="endArrow=classic;html=1;rounded=0;fontSize=23;fontColor=#FFFFFF;strokeColor=#00CC00;strokeWidth=3;dashed=1;" edge="1" parent="1">
          <mxGeometry width="50" height="50" relative="1" as="geometry">
            <mxPoint x="190" y="590" as="sourcePoint" />
            <mxPoint x="60" y="590" as="targetPoint" />
          </mxGeometry>
        </mxCell>
      </root>
    </mxGraphModel>
  </diagram>
</mxfile>
